<svg width="128" height="128" viewBox="0 0 128 128" xmlns="http://www.w3.org/2000/svg" fill="none">
  <rect x="4" y="4" width="120" height="120" rx="24" fill="#F7F7FB" stroke="#E1E4F2"/>
  <!-- cute face -->
  <circle cx="64" cy="64" r="30" fill="#FFF" stroke="#DADDE8"/>
  <!-- ears (cow/horse mix) -->
  <path d="M40 36 l-10 -10 c-6 6 -6 16 2 20 z" fill="#F2D7B6"/>
  <path d="M88 36 l10 -10 c6 6 6 16 -2 20 z" fill="#F2D7B6"/>
  <!-- spots -->
  <ellipse cx="52" cy="60" rx="8" ry="6" fill="#444" opacity="0.25"/>
  <ellipse cx="78" cy="58" rx="7" ry="5" fill="#444" opacity="0.25"/>
  <!-- eyes -->
  <circle cx="54" cy="68" r="4" fill="#222"/>
  <circle cx="74" cy="68" r="4" fill="#222"/>
  <!-- blush -->
  <circle cx="46" cy="78" r="4" fill="#FFB3C1" opacity="0.6"/>
  <circle cx="82" cy="78" r="4" fill="#FFB3C1" opacity="0.6"/>
  <!-- snout -->
  <ellipse cx="64" cy="84" rx="16" ry="10" fill="#F9E1C7" stroke="#EBD3B7"/>
  <circle cx="58" cy="84" r="2" fill="#7A6B6B"/>
  <circle cx="70" cy="84" r="2" fill="#7A6B6B"/>
  <!-- tiny tuft -->
  <path d="M64 30 c6 6 10 6 16 0" stroke="#444" stroke-width="2" stroke-linecap="round"/>
</svg>



